<svg xmlns="http://www.w3.org/2000/svg" width="1020" height="420" viewBox="0 0 1020 420">
<defs><marker id="arrow" markerWidth="10" markerHeight="7" refX="10" refY="3.5" orient="auto"><polygon points="0 0, 10 3.5, 0 7" fill="#111827"/></marker></defs>
<rect x="0" y="0" width="100%" height="100%" fill="#ffffff"/>
<text x="24" y="36" font-size="24" font-family="DejaVu Sans, sans-serif" fill="#222">Topology Before/After</text>
<circle cx="280.0" cy="210.0" r="120.0" fill="none" stroke="#6b7280" stroke-width="2"/>
<circle cx="740.0" cy="210.0" r="120.0" fill="none" stroke="#6b7280" stroke-width="2"/>
<circle cx="400.00" cy="210.00" r="6" fill="#3b82f6"/>
<circle cx="390.87" cy="255.92" r="6" fill="#3b82f6"/>
<circle cx="364.85" cy="294.85" r="6" fill="#3b82f6"/>
<circle cx="325.92" cy="320.87" r="6" fill="#3b82f6"/>
<circle cx="280.00" cy="330.00" r="6" fill="#3b82f6"/>
<circle cx="234.08" cy="320.87" r="6" fill="#3b82f6"/>
<circle cx="195.15" cy="294.85" r="6" fill="#3b82f6"/>
<circle cx="169.13" cy="255.92" r="6" fill="#3b82f6"/>
<circle cx="160.00" cy="210.00" r="6" fill="#3b82f6"/>
<circle cx="169.13" cy="164.08" r="6" fill="#3b82f6"/>
<circle cx="195.15" cy="125.15" r="6" fill="#3b82f6"/>
<circle cx="234.08" cy="99.13" r="6" fill="#3b82f6"/>
<circle cx="280.00" cy="90.00" r="6" fill="#3b82f6"/>
<circle cx="325.92" cy="99.13" r="6" fill="#3b82f6"/>
<circle cx="364.85" cy="125.15" r="6" fill="#3b82f6"/>
<circle cx="390.87" cy="164.08" r="6" fill="#3b82f6"/>
<circle cx="860.00" cy="210.00" r="6" fill="#10b981"/>
<circle cx="851.90" cy="253.35" r="6" fill="#10b981"/>
<circle cx="828.68" cy="290.84" r="6" fill="#10b981"/>
<circle cx="793.49" cy="317.42" r="6" fill="#10b981"/>
<circle cx="751.07" cy="329.49" r="6" fill="#10b981"/>
<circle cx="707.16" cy="325.42" r="6" fill="#10b981"/>
<circle cx="667.68" cy="305.76" r="6" fill="#10b981"/>
<circle cx="637.97" cy="273.17" r="6" fill="#10b981"/>
<circle cx="622.04" cy="232.05" r="6" fill="#10b981"/>
<circle cx="622.04" cy="187.95" r="6" fill="#10b981"/>
<circle cx="637.97" cy="146.83" r="6" fill="#10b981"/>
<circle cx="667.68" cy="114.24" r="6" fill="#10b981"/>
<circle cx="707.16" cy="94.58" r="6" fill="#10b981"/>
<circle cx="751.07" cy="90.51" r="6" fill="#10b981"/>
<circle cx="793.49" cy="102.58" r="6" fill="#10b981"/>
<circle cx="828.68" cy="129.16" r="6" fill="#10b981"/>
<circle cx="851.90" cy="166.65" r="6" fill="#f97316"/>
<text x="180.0" y="72" font-size="16" font-family="DejaVu Sans Mono, monospace" fill="#333">before: nodes=16, v=0</text>
<text x="640.0" y="72" font-size="16" font-family="DejaVu Sans Mono, monospace" fill="#333">after: nodes=17, v=1</text>
<line x1="420" y1="210" x2="600" y2="210" stroke="#111827" stroke-width="2" marker-end="url(#arrow)"/>
<text x="430" y="196" font-size="14" font-family="DejaVu Sans, sans-serif" fill="#111827">events: topology_add_nodes, topology_rewire_ring</text>
</svg>
